<?xml version="1.0" encoding="UTF-8" standalone="no"?>
<svg
   viewBox="0 0 512 512"
   version="1.1"
   id="svg4"
   sodipodi:docname="bread-slice-solid.svg"
   inkscape:version="1.2.1 (9c6d41e410, 2022-07-14)"
   xmlns:inkscape="http://www.inkscape.org/namespaces/inkscape"
   xmlns:sodipodi="http://sodipodi.sourceforge.net/DTD/sodipodi-0.dtd"
   xmlns="http://www.w3.org/2000/svg"
   xmlns:svg="http://www.w3.org/2000/svg">
  <defs
     id="defs8" />
  <sodipodi:namedview
     id="namedview6"
     pagecolor="#ffffff"
     bordercolor="#000000"
     borderopacity="0.25"
     inkscape:showpageshadow="2"
     inkscape:pageopacity="0.0"
     inkscape:pagecheckerboard="0"
     inkscape:deskcolor="#d1d1d1"
     showgrid="false"
     inkscape:zoom="2.2898106"
     inkscape:cx="209.40596"
     inkscape:cy="310.50603"
     inkscape:window-width="1920"
     inkscape:window-height="1009"
     inkscape:window-x="-8"
     inkscape:window-y="-8"
     inkscape:window-maximized="1"
     inkscape:current-layer="svg4" />
  <!--! Font Awesome Pro 6.4.0 by @fontawesome - https://fontawesome.com License - https://fontawesome.com/license (Commercial License) Copyright 2023 Fonticons, Inc. -->
  <path
     id="path2"
     style="fill:#2e8aef;fill-opacity:1"
     d="M 256 32 C 192.00006 32 0 64.000128 0 192 C 0 227.29996 28.700035 256 64 256 L 64 432 C 64 435.99708 64.543187 439.85932 65.464844 443.57227 L 65.466797 444.0625 L 65.748047 444.66992 C 71.315982 465.01628 89.892615 480 112 480 L 400 480 C 403.83742 480 407.55128 479.50002 411.12891 478.64844 L 411.33008 478.64844 L 411.56641 478.53711 C 432.47274 473.35045 448 454.50505 448 432 L 448 256.16016 L 449.14062 255.94141 C 483.91047 255.32466 512 226.91488 512 192 C 512 64.000128 319.99994 32 256 32 z " />
</svg>
